<svg id="Capa_1" enable-background="new 0 0 512 512" height="512" viewBox="0 0 512 512" width="512" xmlns="http://www.w3.org/2000/svg"><path d="m143.803 144.286h80.081v50.147h-80.081z" fill="#cfd3df"/><path d="m10 194.433h213.884v307.567h-213.884z" fill="#faf7f5"/><path d="m51.876 234.55h130.132v50.147h-130.132z" fill="#7dd9c2"/><ellipse cx="116.942" cy="394.686" fill="#cfd3df" rx="20.02" ry="20.059"/><ellipse cx="401.898" cy="318.964" fill="#faf7f5" rx="100.102" ry="100.294"/><path d="m413.412 348.217h-23.028c-11.056 0-20.018-8.962-20.018-20.018v-39.901c0-11.056 8.962-20.018 20.018-20.018h23.028c11.056 0 20.018 8.962 20.018 20.018v39.901c0 11.055-8.962 20.018-20.018 20.018z" fill="#cfd3df"/><path d="m41.876 234.55v50.147c0 5.522 4.477 10 10 10h130.132c5.523 0 10-4.478 10-10v-50.147c0-5.522-4.477-10-10-10h-130.132c-5.523.001-10 4.478-10 10zm20 10h110.132v30.147h-110.132z"/><path d="m116.942 364.627c-16.553 0-30.02 13.484-30.02 30.059 0 16.574 13.467 30.058 30.02 30.058s30.021-13.484 30.021-30.058c-.001-16.575-13.468-30.059-30.021-30.059zm0 40.118c-5.525 0-10.02-4.513-10.02-10.059 0-5.547 4.495-10.06 10.02-10.06s10.021 4.513 10.021 10.06c-.001 5.546-4.496 10.059-10.021 10.059z"/><path d="m184.594 384.769h-12.513c-5.523 0-10 4.478-10 10s4.477 10 10 10h12.513c5.523 0 10-4.478 10-10s-4.477-10-10-10z"/><path d="m61.803 384.769h-12.513c-5.523 0-10 4.478-10 10s4.477 10 10 10h12.513c5.523 0 10-4.478 10-10s-4.477-10-10-10z"/><path d="m126.942 339.524v-12.537c0-5.522-4.477-10-10-10s-10 4.478-10 10v12.537c0 5.522 4.477 10 10 10s10-4.477 10-10z"/><path d="m116.942 440.015c-5.523 0-10 4.478-10 10v12.536c0 5.522 4.477 10 10 10s10-4.478 10-10v-12.536c0-5.522-4.477-10-10-10z"/><path d="m401.41 409.258h-.051c-5.489 0-9.97 4.46-10 9.95-.029 5.51 4.431 10.02 9.95 10.05h.05c5.48 0 9.971-4.46 10-9.949.031-5.511-4.439-10.02-9.949-10.051z"/><path d="m503.35 276.039c-5.55-13.13-13.479-24.93-23.59-35.059-10.11-10.131-21.89-18.08-35-23.64-13.57-5.75-27.99-8.67-42.86-8.67-2.515 0-5.016.091-7.504.257-10.524-16.562-20.818-38.463-14.24-69.951 6.94-33.226 12.492-71.069-9.638-99.667-18.404-23.783-52.46-36.543-104.113-39.01-40.994-1.957-68.454 5.679-83.958 23.347-19.02 21.674-13.548 52.087-10.279 70.258 2.994 16.645 2.954 31.507 2.493 40.383h-30.857c-5.523 0-10 4.478-10 10v40.146h-123.804c-5.523 0-10 4.478-10 10v307.567c0 5.522 4.477 10 10 10h213.884c5.523 0 10-4.478 10-10v-357.714c0-5.522-4.477-10-10-10h-29.185c.474-10.111.375-26.002-2.849-43.924-2.968-16.5-7.033-39.097 5.628-53.525 11.07-12.616 33.932-18.187 67.972-16.562 44.82 2.141 74.849 12.662 89.25 31.273 16.919 21.865 11.905 54.481 5.877 83.337-7.081 33.9 2.265 59.289 12.625 77.57-4.811 1.299-9.542 2.922-14.172 4.883-13.11 5.561-24.881 13.51-34.99 23.64-10.11 10.13-18.05 21.93-23.59 35.059-5.74 13.59-8.65 28.04-8.65 42.929 0 21.03 5.93 41.48 17.15 59.14 10.93 17.2 26.34 31.019 44.569 39.96 1.38.68 2.86 1.02 4.391 1.02 3.85 0 7.29-2.14 8.989-5.6 2.431-4.95.381-10.95-4.569-13.38-31.181-15.31-50.54-46.41-50.53-81.14 0-24.12 9.38-46.79 26.39-63.859 12.879-12.894 28.963-21.392 46.439-24.778 3.582 5.258 6.854 10.146 7.606 12.975 1.146 4.307 1.141 10.101.798 14.973h-2.649c-16.552 0-30.018 13.466-30.018 30.018v39.9c0 16.553 13.466 30.018 30.018 30.018h23.028c16.553 0 30.019-13.466 30.019-30.018v-39.9c0-16.553-13.466-30.018-30.019-30.018h-.326c.346-6.103.213-13.593-1.523-20.117-.822-3.086-2.236-6.114-4.076-9.301 21.949 1.345 42.409 10.526 58.114 26.248 17.021 17.069 26.4 39.739 26.4 63.859.01 34.62-20.17 66.64-51.41 81.56-4.98 2.38-7.09 8.359-4.72 13.34 1.649 3.46 5.199 5.69 9.029 5.69 1.5 0 2.95-.33 4.311-.98 18.51-8.82 34.18-22.65 45.32-39.969 11.42-17.78 17.47-38.4 17.47-59.64-.001-14.888-2.911-29.338-8.651-42.928zm-289.466 215.961h-193.884v-287.567h193.884zm0-307.567h-60.081v-30.146h60.081zm209.547 103.865v39.9c0 5.524-4.494 10.018-10.019 10.018h-23.028c-5.523 0-10.018-4.494-10.018-10.018v-39.9c0-5.524 4.494-10.018 10.018-10.018h23.028c5.525 0 10.019 4.494 10.019 10.018z"/></svg>